<svg width="1010" height="667" viewBox="0 0 1010 667" fill="none" xmlns="http://www.w3.org/2000/svg">
<path d="M966.15 209.583C945.994 199.047 936.755 171.599 934.656 159.192C933.892 156.329 933.739 150.946 939.237 152.32C946.108 154.038 983.901 188.968 1001.08 214.737C1018.26 240.505 1003.37 275.435 998.217 288.605C993.064 301.776 1001.08 327.544 994.209 322.963C987.337 318.382 978.175 289.751 983.901 270.854C989.628 251.957 991.346 222.753 966.15 209.583Z" fill="#65A229"/>
<path d="M960.421 194.122C952.633 191.373 948.778 181.906 947.823 177.516C948.969 167.208 962.139 177.516 967.293 182.669C972.446 187.823 970.156 197.558 960.421 194.122Z" fill="#73B037"/>
<path d="M995.448 237.342C986.185 234.011 981.598 222.537 980.463 217.216C981.825 204.724 997.491 217.216 1003.62 223.462C1009.75 229.708 1007.03 241.506 995.448 237.342Z" fill="#84C149" fill-opacity="0.45"/>
<path d="M936.943 164.344C936.485 168.009 933.698 159.381 932.362 154.61C923.2 146.02 918.619 139.149 914.611 127.124C910.602 115.098 912.32 88.7575 911.748 88.1849C911.29 87.7268 913.465 88.3758 914.611 88.7575C911.747 117.389 915.756 131.705 923.773 142.584C931.789 153.464 938.661 150.029 943.242 153.464C947.823 156.9 943.242 161.481 939.806 158.618C936.37 155.755 937.516 159.763 936.943 164.344Z" fill="#1D3A00"/>
<path d="M863.899 91.4045C879.055 83.4817 886.002 62.8421 887.581 53.5126C888.155 51.3597 888.27 47.3121 884.136 48.3456C878.969 49.6373 850.55 75.9033 837.633 95.2798C824.715 114.656 835.91 140.922 839.786 150.826C843.661 160.729 837.633 180.106 842.8 176.661C847.967 173.217 854.856 151.687 850.55 137.478C846.245 123.268 844.953 101.308 863.899 91.4045Z" fill="#65A229"/>
<path d="M868.204 79.7761C874.06 77.7092 876.959 70.5902 877.677 67.289C876.816 59.5384 866.912 67.289 863.037 71.1643C859.162 75.0396 860.884 82.3596 868.204 79.7761Z" fill="#73B037"/>
<path d="M841.862 112.278C848.828 109.773 852.276 101.145 853.13 97.1442C852.106 87.7509 840.326 97.1442 835.716 101.841C831.107 106.537 833.155 115.409 841.862 112.278Z" fill="#84C149" fill-opacity="0.45"/>
<path d="M885.857 57.3869C886.202 60.1427 888.297 53.6551 889.302 50.0669C896.192 43.6079 899.636 38.4411 902.65 29.3987C905.665 20.3563 904.372 0.549069 904.803 0.118479C905.147 -0.225993 903.511 0.262009 902.65 0.549069C904.803 22.0786 901.789 32.8433 895.761 41.0245C889.732 49.2057 884.565 46.6222 881.121 49.2057C877.676 51.7892 881.121 55.234 883.704 53.081C886.288 50.9281 885.427 53.9422 885.857 57.3869Z" fill="#1D3A00"/>
<path d="M30.5319 249.774C44.7929 242.319 51.3291 222.899 52.8147 214.121C53.3548 212.096 53.4629 208.287 49.5735 209.26C44.7118 210.475 17.9725 235.189 5.81832 253.42C-6.3359 271.651 4.19775 296.365 7.84402 305.683C11.4903 315.001 5.81832 333.233 10.68 329.992C15.5417 326.75 22.024 306.493 17.9725 293.124C13.9211 279.754 12.7057 259.092 30.5319 249.774Z" fill="#65A229"/>
<path d="M34.5841 238.834C40.094 236.89 42.822 230.191 43.4972 227.085C42.6869 219.793 33.3687 227.085 29.7224 230.731C26.0761 234.378 27.6967 241.265 34.5841 238.834Z" fill="#73B037"/>
<path d="M9.80248 269.413C16.3563 267.057 19.6011 258.939 20.4042 255.174C19.4404 246.336 8.35679 255.174 4.0197 259.593C-0.317375 264.012 1.61022 272.359 9.80248 269.413Z" fill="#84C149" fill-opacity="0.45"/>
<path d="M51.1939 217.767C51.518 220.36 53.4897 214.255 54.435 210.879C60.9176 204.802 64.1581 199.941 66.9944 191.433C69.8307 182.925 68.6148 164.288 69.0199 163.883C69.344 163.559 67.8046 164.018 66.9944 164.288C69.0201 184.545 66.1841 194.674 60.5121 202.371C54.8402 210.069 49.9785 207.638 46.7373 210.069C43.4962 212.5 46.7373 215.741 49.1682 213.715C51.599 211.69 50.7887 214.526 51.1939 217.767Z" fill="#1D3A00"/>
<path d="M749.12 104.217C744.539 69.4013 470.06 142.774 333.393 183.812C214.287 183.812 434.176 652.221 471.969 666.537C509.762 680.852 754.847 147.737 749.12 104.217Z" fill="#EEC08A"/>
<path d="M776.946 209.566C764.12 210.94 736.481 173.49 724.265 154.594C722.432 145.432 728.464 141.614 731.709 140.851C752.896 139.133 798.592 136.728 811.877 140.851C828.483 146.004 819.893 161.465 799.279 171.2C778.664 180.935 792.98 207.848 776.946 209.566Z" fill="#FADAB4"/>
<path d="M774.123 200.387C763.641 201.518 741.056 170.722 731.074 155.183C729.577 147.649 734.506 144.51 737.157 143.882C754.47 142.469 791.81 140.491 802.666 143.882C816.236 148.12 809.217 160.833 792.372 168.838C775.527 176.843 787.225 198.975 774.123 200.387Z" fill="#FFEFDC"/>
<path d="M743.734 295.46C730.908 296.835 703.269 259.385 691.053 240.488C689.22 231.326 695.252 227.509 698.497 226.745C719.684 225.027 765.38 222.622 778.665 226.745C795.271 231.899 786.681 247.36 766.067 257.094C745.452 266.829 759.768 293.743 743.734 295.46Z" fill="#FADAB4"/>
<path d="M740.911 286.282C730.429 287.412 707.845 256.616 697.862 241.077C696.365 233.543 701.294 230.404 703.945 229.776C721.258 228.364 758.598 226.386 769.454 229.776C783.024 234.014 776.005 246.728 759.16 254.733C742.315 262.738 754.013 284.869 740.911 286.282Z" fill="#FFEFDC"/>
<path d="M705.941 388.226C693.114 389.6 665.475 352.151 653.259 333.254C651.427 324.092 657.458 320.274 660.703 319.511C681.89 317.793 727.586 315.388 740.871 319.511C757.477 324.664 748.888 340.125 728.273 349.86C707.659 359.595 721.974 386.508 705.941 388.226Z" fill="#FADAB4"/>
<path d="M703.117 379.048C692.636 380.178 670.051 349.382 660.069 333.843C658.571 326.309 663.5 323.17 666.152 322.542C683.465 321.129 720.805 319.152 731.66 322.542C745.23 326.78 738.211 339.494 721.366 347.499C704.521 355.504 716.219 377.635 703.117 379.048Z" fill="#FFEFDC"/>
<path d="M668.147 468.394C655.32 469.768 627.681 432.319 615.465 413.422C613.633 404.26 619.665 400.442 622.91 399.679C644.097 397.961 689.792 395.556 703.077 399.679C719.683 404.832 711.094 420.293 690.479 430.028C669.865 439.763 684.181 466.676 668.147 468.394Z" fill="#FADAB4"/>
<path d="M665.323 459.216C654.842 460.346 632.257 429.55 622.275 414.011C620.777 406.477 625.706 403.338 628.358 402.71C645.671 401.297 683.011 399.32 693.866 402.71C707.436 406.948 700.417 419.662 683.572 427.667C666.727 435.672 678.425 457.803 665.323 459.216Z" fill="#FFEFDC"/>
<path d="M622.337 557.724C609.51 559.098 581.872 521.649 569.656 502.752C567.823 493.59 573.855 489.772 577.1 489.009C598.287 487.291 643.983 484.886 657.268 489.009C673.874 494.163 665.284 509.623 644.67 519.358C624.055 529.093 638.371 556.006 622.337 557.724Z" fill="#FADAB4"/>
<path d="M619.514 548.546C609.032 549.676 586.447 518.88 576.465 503.341C574.968 495.807 579.897 492.668 582.548 492.04C599.861 490.627 637.201 488.65 648.057 492.04C661.626 496.278 654.608 508.992 637.763 516.997C620.917 525.002 632.615 547.133 619.514 548.546Z" fill="#FFEFDC"/>
<path d="M576.528 655.07C563.701 656.444 536.062 618.994 523.846 600.098C522.014 590.936 528.045 587.118 531.29 586.355C552.477 584.637 598.173 582.232 611.458 586.355C628.064 591.508 619.475 606.969 598.86 616.704C578.246 626.438 592.561 653.352 576.528 655.07Z" fill="#FADAB4"/>
<path d="M573.704 645.891C563.223 647.021 540.638 616.226 530.655 600.687C529.158 593.153 534.087 590.013 536.738 589.386C554.051 587.973 591.391 585.995 602.247 589.386C615.817 593.624 608.798 606.337 591.953 614.342C575.108 622.347 586.806 644.479 573.704 645.891Z" fill="#FFEFDC"/>
<path d="M724.978 103.591C720.637 70.9515 460.563 139.739 331.068 178.212C218.213 178.212 426.561 617.347 462.371 630.768C498.181 644.189 730.403 144.391 724.978 103.591Z" fill="#FADAB4"/>
<mask id="mask0_1195_50" style="mask-type:alpha" maskUnits="userSpaceOnUse" x="297" y="95" width="429" height="537">
<path d="M724.978 103.591C720.637 70.9515 460.563 139.739 331.068 178.212C218.213 178.212 426.562 617.347 462.372 630.768C498.181 644.189 730.404 144.391 724.978 103.591Z" fill="#FADAB4"/>
</mask>
<g mask="url(#mask0_1195_50)">
<path d="M648.339 300.628C597.031 214.963 527.514 147.737 483.995 132.849L536.104 119.105C590.618 127.351 680.406 229.622 680.406 254.818L648.339 300.628Z" fill="#9F000A"/>
<path d="M602.361 422.597C533.593 281.778 417.492 188.816 359.162 164.343L432.743 147.736C505.809 161.291 597.756 284.539 634.596 344.469L602.361 422.597Z" fill="#3E0004"/>
<path d="M529.805 560.601C443.308 372.255 276.776 252.622 203.408 219.888L282.43 186.676C374.333 204.805 527.514 387.668 584.204 462.109L529.805 560.601Z" fill="#9F000A"/>
<path d="M711.9 237.639C660.593 151.974 572.752 97.9177 529.232 83.0294L589.358 70.4316C643.872 78.6775 715.336 151.936 742.822 188.393L711.9 237.639Z" fill="#9F000A"/>
</g>
<path d="M612.414 356.173C612.414 500.783 495.184 618.012 350.574 618.012C205.965 618.012 88.7351 500.783 88.7351 356.173C88.7351 211.563 205.965 94.334 350.574 94.334C495.184 94.334 612.414 211.563 612.414 356.173Z" fill="#663903"/>
<path fill-rule="evenodd" clip-rule="evenodd" d="M630.015 356.174C630.015 510.506 504.905 635.616 350.573 635.616C196.242 635.616 71.1315 510.506 71.1315 356.174C71.1315 201.843 196.242 76.7324 350.573 76.7324C504.905 76.7324 630.015 201.843 630.015 356.174ZM350.573 618.013C495.183 618.013 612.412 500.784 612.412 356.174C612.412 211.564 495.183 94.3351 350.573 94.3351C205.964 94.3351 88.7341 211.564 88.7341 356.174C88.7341 500.784 205.964 618.013 350.573 618.013Z" fill="#371E00"/>
<circle cx="351.306" cy="355.44" r="225.9" fill="#542F03"/>
<path d="M135.674 323.901C130.98 301.604 158.655 267.181 173.08 252.757C324.902 51.0602 520.732 227.087 546.403 261.558C572.073 296.03 527.333 329.035 490.661 351.038C453.989 373.042 530.267 417.782 546.403 454.454C562.539 491.126 451.789 546.868 422.451 532.199C393.113 517.53 377.711 568.138 293.365 564.47C209.019 560.803 173.08 496.26 187.016 472.79C200.952 449.32 178.948 451.52 155.478 442.719C132.008 433.918 144.476 397.245 163.546 366.441C182.615 335.636 141.542 351.772 135.674 323.901Z" fill="#FFE4AD" fill-opacity="0.13"/>
<path d="M487.151 160C481.971 158.44 293.052 195.65 199.24 214.45C185.731 218.109 160.686 230.573 168.577 251.161C178.44 276.896 205.014 265.624 206.479 285.589C207.944 305.554 232.923 325.789 265.485 323.05C298.047 320.311 300.867 341.847 328.77 342.441C356.673 343.034 338.439 321.093 363.986 323.718C389.532 326.344 401.83 319.164 421.524 301.499C441.217 283.834 477.464 290.929 497.508 258.581C517.552 226.234 493.626 161.95 487.151 160Z" fill="#CE810E"/>
<path d="M476.963 162.484C472.151 161.032 296.646 195.722 209.495 213.248C196.946 216.658 173.678 228.271 181.004 247.444C190.162 271.411 214.851 260.908 216.208 279.503C217.565 298.097 240.766 316.938 271.015 314.381C301.265 311.825 303.88 331.882 329.801 332.43C355.722 332.978 338.787 312.546 362.518 314.987C386.249 317.427 397.675 310.738 415.973 294.282C434.27 277.827 467.941 284.428 486.567 254.297C505.193 224.166 482.977 164.299 476.963 162.484Z" fill="#F0AF06"/>
<path d="M462.442 170.233C458.129 168.913 300.693 200.805 222.514 216.916C211.256 220.045 190.375 230.678 196.922 248.178C205.105 270.053 227.259 260.432 228.453 277.411C229.648 294.389 250.432 311.566 277.563 309.195C304.694 306.823 307.015 325.136 330.26 325.605C353.505 326.074 338.343 307.436 359.622 309.636C380.901 311.836 391.156 305.713 407.585 290.664C424.014 275.614 454.203 281.601 470.943 254.063C487.684 226.525 467.834 171.883 462.442 170.233Z" fill="#FEC653"/>
<path d="M354.974 203.622C350.329 205.822 343.826 211.983 354.974 219.024C368.908 227.825 373.311 199.955 354.974 203.622Z" fill="#FFE8BA"/>
<path d="M311.168 203.168C314.889 205.016 320.098 210.191 311.168 216.104C300.006 223.497 296.48 200.088 311.168 203.168Z" fill="#FFE8BA"/>
<path d="M362.969 167.369C369.57 159.301 373.97 161.502 372.503 155.634C371.38 151.146 380.899 151.217 386.438 151.873C388.393 157.039 391.425 167.369 387.904 167.369C383.504 167.369 382.77 168.102 380.57 174.703C378.81 179.984 365.658 181.304 359.301 181.304C358.323 179.348 357.688 173.823 362.969 167.369Z" fill="#639D45"/>
<path d="M501.816 215.74C496.637 214.18 307.717 251.391 213.905 270.191C200.396 273.849 175.352 286.313 183.242 306.901C193.105 332.636 219.68 321.364 221.145 341.329C222.609 361.295 247.588 381.529 280.151 378.79C312.713 376.051 315.532 397.588 343.435 398.181C371.339 398.775 353.105 376.833 378.651 379.458C404.198 382.084 416.496 374.904 436.189 357.239C455.882 339.575 492.13 346.669 512.174 314.321C532.218 281.974 508.291 217.69 501.816 215.74Z" fill="#CE810E"/>
<path d="M490.98 218.637C486.168 217.185 310.663 251.874 223.512 269.401C210.963 272.81 187.695 284.423 195.021 303.597C204.179 327.563 228.868 317.06 230.225 335.655C231.582 354.25 254.783 373.091 285.032 370.534C315.282 367.977 317.897 388.035 343.818 388.583C369.739 389.13 352.804 368.698 376.535 371.139C400.266 373.58 411.692 366.89 429.989 350.435C448.287 333.979 481.958 340.58 500.584 310.449C519.21 280.318 496.994 220.452 490.98 218.637Z" fill="#F0AF06"/>
<path d="M476.62 226.549C472.306 225.25 314.936 256.242 236.791 271.901C225.538 274.948 204.676 285.33 211.249 302.478C219.465 323.914 241.602 314.525 242.822 331.155C244.042 347.785 264.85 364.639 291.974 362.358C319.098 360.076 321.447 378.015 344.69 378.509C367.933 379.004 352.745 360.728 374.025 362.915C395.305 365.102 405.549 359.121 421.954 344.408C438.358 329.695 468.552 335.604 485.248 308.661C501.945 281.717 482.014 228.173 476.62 226.549Z" fill="#FEC653"/>
<circle cx="413.647" cy="260.828" r="13.9354" fill="#240003"/>
<circle cx="413.649" cy="260.828" r="8.06788" fill="#FEC653"/>
<circle cx="282.445" cy="299.025" r="7.28827" fill="#240003"/>
<circle cx="282.445" cy="299.024" r="4.21953" fill="#FEC653"/>
<path d="M349.307 276.514C353.027 278.362 358.236 283.536 349.307 289.45C338.145 296.842 334.618 273.433 349.307 276.514Z" fill="#FFE8BA"/>
<path d="M459.323 277.98C463.043 279.828 468.252 285.003 459.323 290.917C448.161 298.309 444.634 274.9 459.323 277.98Z" fill="#FFE8BA"/>
<path d="M501.835 278.813C496.655 277.253 307.736 314.463 213.924 333.263C200.415 336.921 175.37 349.385 183.261 369.973C193.124 395.708 219.698 384.436 221.163 404.402C222.628 424.367 247.607 444.601 280.169 441.862C312.732 439.123 315.551 460.66 343.454 461.253C371.357 461.847 353.123 439.905 378.67 442.531C404.216 445.156 416.515 437.976 436.208 420.312C455.901 402.647 492.148 409.741 512.192 377.394C532.236 345.046 508.31 280.763 501.835 278.813Z" fill="#CE810E"/>
<path d="M490.998 281.709C486.187 280.257 310.682 314.947 223.531 332.473C210.981 335.883 187.713 347.495 195.04 366.669C204.197 390.636 228.886 380.133 230.243 398.727C231.6 417.322 254.801 436.163 285.051 433.606C315.3 431.049 317.916 451.107 343.836 451.655C369.757 452.203 352.823 431.77 376.554 434.211C400.285 436.652 411.711 429.962 430.008 413.507C448.305 397.051 481.976 403.652 500.602 373.521C519.228 343.391 497.013 283.524 490.998 281.709Z" fill="#F0AF06"/>
<path d="M476.482 289.457C472.168 288.158 314.798 319.151 236.653 334.809C225.4 337.856 204.538 348.238 211.111 365.386C219.327 386.822 241.464 377.433 242.684 394.063C243.904 410.693 264.711 427.547 291.836 425.266C318.96 422.985 321.309 440.923 344.552 441.418C367.795 441.912 352.606 423.636 373.887 425.823C395.167 428.01 405.411 422.03 421.816 407.316C438.22 392.603 468.414 398.512 485.11 371.569C501.807 344.625 481.876 291.081 476.482 289.457Z" fill="#FEC653"/>
<path d="M476.938 313.532C473.118 312.415 334.008 338.423 264.93 351.567C254.985 354.134 236.558 362.924 242.414 377.543C249.733 395.818 269.289 387.877 270.409 402.042C271.529 416.206 289.973 430.61 313.958 428.734C337.943 426.857 340.064 442.139 360.623 442.617C381.182 443.095 367.703 427.494 386.53 429.409C405.357 431.323 414.403 426.255 428.876 413.766C443.348 401.276 470.068 406.382 484.77 383.478C499.471 360.574 481.712 314.928 476.938 313.532Z" fill="#E78429" fill-opacity="0.51"/>
<circle cx="238.997" cy="347.264" r="12.0533" fill="#240003"/>
<circle cx="238.995" cy="347.265" r="6.97823" fill="#FEC653"/>
<circle cx="351.949" cy="375.133" r="12.0533" fill="#240003"/>
<circle cx="351.947" cy="375.134" r="6.97823" fill="#F2A43E"/>
<path d="M394.796 338.121C398.516 339.969 403.725 345.144 394.796 351.057C383.634 358.45 380.107 335.041 394.796 338.121Z" fill="#FFE8BA"/>
<path fill-rule="evenodd" clip-rule="evenodd" d="M233.529 309.35C218.129 319.852 202.61 328.492 188.572 330.227C177.571 331.588 169.882 329.9 165.312 325.417C160.793 320.986 160.013 314.481 161.014 307.719C163.022 294.15 172.531 277.267 180.535 265.949L184.623 268.326C176.711 279.512 167.688 295.725 165.826 308.305C164.892 314.618 165.841 319.451 168.877 322.428C171.861 325.355 177.552 327.146 187.916 325.865C200.583 324.298 215.209 316.334 230.61 305.831C238.259 300.614 246.002 294.843 253.692 289.047C254.838 288.184 255.982 287.32 257.126 286.457C263.64 281.54 270.1 276.663 276.368 272.194C283.733 266.943 290.899 262.207 297.665 258.585C304.405 254.976 310.909 252.385 316.934 251.567C323.048 250.737 328.749 251.732 333.56 255.359C338.279 258.916 341.853 264.788 344.345 273.168C354.148 306.133 342.356 335.584 333.324 358.144C333.2 358.453 333.077 358.761 332.954 359.068C328.348 370.58 324.7 379.943 324.629 387.278C324.594 390.852 325.42 393.768 327.28 396.16C329.146 398.56 332.23 400.661 337.171 402.298C341.716 403.804 347.109 403.476 353.335 401.536C359.558 399.596 366.385 396.113 373.618 391.612C385.402 384.279 397.922 374.466 410.314 364.756C413.159 362.525 415.999 360.3 418.82 358.112C433.762 346.524 448.369 335.835 460.52 331.523C466.629 329.355 472.562 328.634 477.73 330.647C482.952 332.681 486.734 337.241 489.173 344.263C494.002 358.162 492.92 371.937 489.656 385.104C487.367 394.339 483.949 403.446 480.701 412.102C479.35 415.702 478.029 419.224 476.83 422.645C472.686 434.467 469.984 445.117 471.726 454.57C473.428 463.815 479.456 472.241 493.71 479.5C500.738 483.08 506.206 483.684 510.556 482.518C514.943 481.342 518.73 478.224 522.037 473.332C528.71 463.463 532.705 447.484 535.85 430.511C536.902 424.835 537.858 419.048 538.793 413.39C540.614 402.368 542.354 391.839 544.559 383.586C546.222 377.367 548.239 372.044 551.009 368.684C552.422 366.971 554.169 365.597 556.346 364.998C558.573 364.385 560.888 364.683 563.18 365.694C565.862 366.877 567.99 367.159 569.682 366.927C571.349 366.698 572.853 365.936 574.242 364.587C577.131 361.781 579.266 356.682 580.651 350.038C583.394 336.88 582.891 319.253 581.551 306.982L586.383 306.548C587.741 318.982 588.291 337.093 585.422 350.856C584.002 357.671 581.666 363.828 577.791 367.592C575.798 369.527 573.347 370.878 570.407 371.281C567.492 371.68 564.362 371.112 561.056 369.653C559.605 369.013 558.562 368.99 557.756 369.212C556.899 369.447 555.935 370.063 554.898 371.321C552.769 373.904 550.929 378.448 549.278 384.624C547.121 392.693 545.441 402.871 543.645 413.75C542.703 419.455 541.729 425.353 540.638 431.241C537.511 448.117 533.413 464.931 526.177 475.634C522.53 481.027 517.908 485.139 511.932 486.74C505.92 488.352 499.073 487.282 491.332 483.339C476.048 475.555 468.926 466.094 466.937 455.295C464.986 444.706 468.05 433.157 472.202 421.312C473.463 417.714 474.824 414.089 476.196 410.433C479.409 401.872 482.689 393.133 484.919 384.138C488.079 371.391 489.019 358.472 484.542 345.586C482.329 339.215 479.232 336.024 475.814 334.693C472.343 333.341 467.876 333.64 462.289 335.623C451.048 339.612 437.078 349.746 421.976 361.458C419.206 363.606 416.403 365.803 413.58 368.016C401.18 377.735 388.396 387.756 376.366 395.242C368.97 399.845 361.729 403.575 354.913 405.7C348.099 407.824 341.479 408.413 335.505 406.434C329.925 404.585 325.903 402.031 323.312 398.697C320.714 395.356 319.732 391.462 319.773 387.239C319.853 378.979 323.893 368.804 328.39 357.566L328.632 356.962C337.726 334.241 349.058 305.929 339.657 274.315C337.293 266.367 334.09 261.484 330.457 258.745C326.917 256.077 322.691 255.238 317.653 255.922C312.526 256.618 306.65 258.888 300.133 262.377C293.641 265.852 286.67 270.45 279.369 275.656C273.159 280.083 266.759 284.914 260.242 289.833C259.097 290.698 257.948 291.565 256.796 292.434C249.104 298.23 241.281 304.063 233.529 309.35Z" fill="white" fill-opacity="0.4"/>
<path d="M516.485 366.83C511.305 365.27 322.386 402.48 228.574 421.28C215.065 424.939 190.02 437.403 197.911 457.991C207.774 483.726 234.348 472.454 235.813 492.419C237.278 512.385 262.257 532.619 294.819 529.88C327.381 527.141 330.201 548.677 358.104 549.271C386.007 549.864 367.773 527.923 393.32 530.548C418.866 533.174 431.164 525.994 450.857 508.329C470.551 490.664 506.798 497.759 526.842 465.411C546.886 433.064 522.96 368.78 516.485 366.83Z" fill="#CE810E"/>
<path d="M505.653 369.727C500.841 368.275 325.336 402.964 238.185 420.49C225.635 423.9 202.368 435.513 209.694 454.686C218.852 478.653 243.54 468.15 244.898 486.745C246.255 505.34 269.456 524.18 299.705 521.624C329.955 519.067 332.57 539.125 358.491 539.672C384.411 540.22 367.477 519.788 391.208 522.229C414.939 524.669 426.365 517.98 444.662 501.524C462.96 485.069 496.631 491.67 515.257 461.539C533.882 431.408 511.667 371.541 505.653 369.727Z" fill="#F0AF06"/>
<path d="M491.137 377.475C486.822 376.175 329.453 407.168 251.307 422.827C240.055 425.874 219.192 436.256 225.765 453.404C233.981 474.84 256.118 465.451 257.338 482.081C258.558 498.711 279.366 515.565 306.49 513.283C333.615 511.002 335.963 528.941 359.206 529.435C382.45 529.93 367.261 511.654 388.541 513.841C409.821 516.028 420.066 510.047 436.47 495.334C452.874 480.62 483.068 486.53 499.765 459.586C516.461 432.643 496.53 379.099 491.137 377.475Z" fill="#FEC653"/>
<circle cx="335.051" cy="476.082" r="8.60918" fill="#240003"/>
<circle cx="335.05" cy="476.082" r="4.98426" fill="#FEC653"/>
<circle cx="335.052" cy="218.633" r="8.60918" fill="#240003"/>
<circle cx="335.05" cy="218.633" r="4.98426" fill="#FEC653"/>
<circle cx="408.416" cy="485.897" r="13.9787" fill="#240003"/>
<circle cx="408.418" cy="485.896" r="8.09294" fill="#FEC653"/>
<path d="M287.7 465.742C291.42 467.59 296.629 472.765 287.7 478.679C276.538 486.071 273.011 462.662 287.7 465.742Z" fill="#FFE8BA"/>
<path d="M376.172 417.504C382.869 420.461 392.245 428.741 376.172 438.203C356.081 450.031 349.733 412.576 376.172 417.504Z" fill="#FFE8BA"/>
<path d="M288.821 407.558C298.209 384.088 316.691 387.999 324.759 392.889C341.629 403.157 342.362 424.427 341.628 435.429C340.895 446.43 339.428 461.099 329.16 460.366C318.892 459.632 277.086 436.895 288.821 407.558Z" fill="#A51923"/>
<path d="M294.244 408.41C302.249 388.588 318.009 391.892 324.889 396.021C339.274 404.693 339.899 422.657 339.273 431.948C338.648 441.24 337.397 453.628 328.642 453.009C319.886 452.389 284.237 433.187 294.244 408.41Z" fill="#DB1723"/>
<path d="M299.923 410.475C306.427 394.521 319.232 397.18 324.822 400.504C336.51 407.484 337.017 421.942 336.509 429.42C336.001 436.899 334.985 446.87 327.871 446.372C320.757 445.873 291.792 430.418 299.923 410.475Z" fill="#FF424D"/>
<path d="M310.965 406.049C309.742 407.516 308.031 410.597 310.965 411.183C314.632 411.917 314.632 405.316 310.965 406.049Z" fill="#6A171C"/>
<path d="M310.965 425.909C309.742 427.375 308.031 430.456 310.965 431.043C314.632 431.776 314.632 425.175 310.965 425.909Z" fill="#6A171C"/>
<path d="M325.052 431.776C323.83 433.243 322.118 436.323 325.052 436.91C328.719 437.643 328.719 431.042 325.052 431.776Z" fill="#6A171C"/>
<path d="M327.987 412.707C326.764 414.174 325.053 417.255 327.987 417.841C331.654 418.575 331.654 411.974 327.987 412.707Z" fill="#6A171C"/>
<path d="M320.122 418.549C319.301 419.369 318.153 421.091 320.122 421.419C322.584 421.829 322.584 418.139 320.122 418.549Z" fill="#6A171C"/>
<path d="M306.92 418.549C306.1 419.369 304.951 421.091 306.92 421.419C309.382 421.829 309.382 418.139 306.92 418.549Z" fill="#6A171C"/>
<path d="M302.518 409.749C301.698 410.569 300.549 412.291 302.518 412.619C304.98 413.029 304.98 409.339 302.518 409.749Z" fill="#6A171C"/>
<path d="M318.655 402.413C317.834 403.233 316.685 404.955 318.655 405.283C321.117 405.693 321.116 402.003 318.655 402.413Z" fill="#6A171C"/>
<path d="M460.17 443.47C454.917 430.336 444.574 432.525 440.059 435.261C430.619 441.007 430.209 452.91 430.62 459.066C431.03 465.222 431.851 473.431 437.597 473.021C443.343 472.61 466.737 459.887 460.17 443.47Z" fill="#A51923"/>
<path d="M457.137 443.947C452.657 432.855 443.838 434.704 439.988 437.015C431.938 441.868 431.589 451.92 431.939 457.119C432.289 462.318 432.989 469.251 437.888 468.904C442.788 468.558 462.737 457.812 457.137 443.947Z" fill="#DB1723"/>
<path d="M453.957 445.102C450.317 436.174 443.151 437.662 440.024 439.522C433.483 443.428 433.199 451.519 433.483 455.704C433.768 459.889 434.336 465.469 438.317 465.19C442.298 464.911 458.507 456.262 453.957 445.102Z" fill="#FF424D"/>
<path d="M447.778 442.626C448.462 443.447 449.42 445.17 447.778 445.499C445.726 445.909 445.726 442.215 447.778 442.626Z" fill="#6A171C"/>
<path d="M447.778 453.739C448.462 454.56 449.42 456.284 447.778 456.612C445.726 457.022 445.726 453.328 447.778 453.739Z" fill="#6A171C"/>
<path d="M439.895 457.022C440.58 457.843 441.537 459.567 439.895 459.895C437.843 460.306 437.844 456.612 439.895 457.022Z" fill="#6A171C"/>
<path d="M438.254 446.35C438.938 447.171 439.895 448.895 438.254 449.223C436.202 449.634 436.202 445.94 438.254 446.35Z" fill="#6A171C"/>
<path d="M442.654 449.619C443.113 450.078 443.756 451.042 442.654 451.225C441.276 451.455 441.276 449.39 442.654 449.619Z" fill="#6A171C"/>
<path d="M450.044 449.619C450.504 450.078 451.146 451.042 450.044 451.225C448.667 451.455 448.667 449.39 450.044 449.619Z" fill="#6A171C"/>
<path d="M452.505 444.694C452.964 445.152 453.607 446.116 452.505 446.3C451.127 446.529 451.127 444.464 452.505 444.694Z" fill="#6A171C"/>
<path d="M443.477 440.592C443.936 441.051 444.579 442.015 443.477 442.198C442.099 442.428 442.1 440.363 443.477 440.592Z" fill="#6A171C"/>
<path d="M348.688 308.515C343.435 295.381 333.092 297.57 328.577 300.306C319.137 306.052 318.727 317.954 319.138 324.111C319.548 330.267 320.369 338.476 326.115 338.065C331.861 337.655 355.255 324.932 348.688 308.515Z" fill="#A51923"/>
<path d="M345.655 308.992C341.175 297.9 332.356 299.749 328.506 302.06C320.456 306.912 320.107 316.965 320.457 322.164C320.807 327.363 321.506 334.296 326.406 333.949C331.306 333.603 351.254 322.857 345.655 308.992Z" fill="#DB1723"/>
<path d="M342.475 310.147C338.835 301.219 331.669 302.707 328.541 304.567C322.001 308.473 321.717 316.564 322.001 320.749C322.286 324.934 322.854 330.513 326.835 330.234C330.816 329.955 347.025 321.307 342.475 310.147Z" fill="#FF424D"/>
<path d="M336.296 307.671C336.98 308.491 337.938 310.215 336.296 310.544C334.244 310.954 334.244 307.26 336.296 307.671Z" fill="#6A171C"/>
<path d="M336.296 318.784C336.98 319.605 337.938 321.329 336.296 321.657C334.244 322.067 334.244 318.373 336.296 318.784Z" fill="#6A171C"/>
<path d="M328.413 322.067C329.097 322.888 330.055 324.612 328.413 324.94C326.361 325.35 326.361 321.657 328.413 322.067Z" fill="#6A171C"/>
<path d="M326.772 311.397C327.456 312.218 328.413 313.942 326.772 314.27C324.719 314.681 324.72 310.987 326.772 311.397Z" fill="#6A171C"/>
<path d="M331.176 314.666C331.635 315.125 332.278 316.089 331.176 316.272C329.799 316.502 329.799 314.437 331.176 314.666Z" fill="#6A171C"/>
<path d="M338.562 314.666C339.021 315.125 339.664 316.089 338.562 316.272C337.185 316.502 337.185 314.437 338.562 314.666Z" fill="#6A171C"/>
<path d="M341.023 309.74C341.482 310.199 342.125 311.163 341.023 311.347C339.645 311.576 339.645 309.511 341.023 309.74Z" fill="#6A171C"/>
<path d="M331.995 305.637C332.454 306.096 333.097 307.059 331.995 307.243C330.617 307.472 330.617 305.408 331.995 305.637Z" fill="#6A171C"/>
<path d="M220.442 207.302C225.695 194.168 236.038 196.357 240.553 199.093C249.993 204.839 250.403 216.742 249.992 222.898C249.582 229.054 248.761 237.263 243.015 236.853C237.269 236.442 213.875 223.719 220.442 207.302Z" fill="#A51923"/>
<path d="M223.475 207.779C227.955 196.687 236.774 198.536 240.624 200.847C248.674 205.7 249.023 215.752 248.673 220.951C248.323 226.15 247.623 233.083 242.724 232.736C237.824 232.39 217.875 221.644 223.475 207.779Z" fill="#DB1723"/>
<path d="M226.655 208.934C230.295 200.006 237.46 201.494 240.588 203.354C247.129 207.26 247.413 215.351 247.128 219.536C246.844 223.721 246.276 229.301 242.295 229.022C238.314 228.743 222.105 220.094 226.655 208.934Z" fill="#FF424D"/>
<path d="M232.834 206.458C232.15 207.279 231.192 209.002 232.834 209.331C234.886 209.741 234.886 206.047 232.834 206.458Z" fill="#6A171C"/>
<path d="M232.834 217.571C232.15 218.392 231.192 220.116 232.834 220.444C234.886 220.854 234.886 217.161 232.834 217.571Z" fill="#6A171C"/>
<path d="M240.716 220.854C240.032 221.675 239.075 223.399 240.716 223.727C242.769 224.138 242.768 220.444 240.716 220.854Z" fill="#6A171C"/>
<path d="M242.358 210.184C241.674 211.005 240.717 212.729 242.358 213.057C244.41 213.468 244.41 209.774 242.358 210.184Z" fill="#6A171C"/>
<path d="M237.958 213.451C237.499 213.91 236.856 214.874 237.958 215.057C239.336 215.287 239.336 213.222 237.958 213.451Z" fill="#6A171C"/>
<path d="M230.568 213.451C230.108 213.91 229.465 214.874 230.568 215.057C231.945 215.287 231.945 213.222 230.568 213.451Z" fill="#6A171C"/>
<path d="M228.107 208.526C227.648 208.985 227.005 209.948 228.107 210.132C229.485 210.361 229.485 208.296 228.107 208.526Z" fill="#6A171C"/>
<path d="M237.135 204.424C236.676 204.883 236.033 205.847 237.135 206.03C238.513 206.26 238.512 204.195 237.135 204.424Z" fill="#6A171C"/>
<path d="M531.446 247.894C523.441 227.881 507.68 231.216 500.801 235.386C486.416 244.141 485.791 262.278 486.417 271.66C487.042 281.041 488.292 293.549 497.048 292.924C505.804 292.298 541.453 272.91 531.446 247.894Z" fill="#A51923"/>
<path d="M526.824 248.62C519.998 231.718 506.559 234.535 500.692 238.056C488.426 245.451 487.893 260.768 488.427 268.691C488.96 276.614 490.026 287.178 497.492 286.65C504.959 286.122 535.357 269.748 526.824 248.62Z" fill="#DB1723"/>
<path d="M521.982 250.379C516.436 236.775 505.517 239.042 500.75 241.877C490.784 247.828 490.351 260.157 490.784 266.534C491.218 272.911 492.084 281.414 498.15 280.989C504.217 280.563 528.915 267.384 521.982 250.379Z" fill="#FF424D"/>
<path d="M512.561 246.607C513.604 247.858 515.063 250.485 512.561 250.985C509.434 251.611 509.435 245.982 512.561 246.607Z" fill="#6A171C"/>
<path d="M512.561 263.543C513.604 264.794 515.063 267.42 512.561 267.921C509.434 268.546 509.435 262.917 512.561 263.543Z" fill="#6A171C"/>
<path d="M500.55 268.547C501.592 269.797 503.051 272.424 500.55 272.925C497.423 273.55 497.423 267.921 500.55 268.547Z" fill="#6A171C"/>
<path d="M498.049 252.285C499.091 253.536 500.551 256.163 498.049 256.663C494.922 257.288 494.922 251.66 498.049 252.285Z" fill="#6A171C"/>
<path d="M504.757 257.267C505.457 257.967 506.436 259.435 504.757 259.715C502.658 260.064 502.658 256.918 504.757 257.267Z" fill="#6A171C"/>
<path d="M516.017 257.267C516.717 257.967 517.697 259.435 516.017 259.715C513.918 260.064 513.918 256.918 516.017 257.267Z" fill="#6A171C"/>
<path d="M519.766 249.762C520.466 250.461 521.446 251.929 519.766 252.209C517.667 252.558 517.667 249.412 519.766 249.762Z" fill="#6A171C"/>
<path d="M506.01 243.508C506.709 244.207 507.689 245.675 506.01 245.955C503.91 246.305 503.911 243.158 506.01 243.508Z" fill="#6A171C"/>
<circle cx="312.435" cy="165.478" r="13.9354" fill="#639D45"/>
<circle cx="246.422" cy="379.644" r="13.9354" fill="#639D45"/>
<circle cx="413.647" cy="411.916" r="13.9354" fill="#639D45"/>
<circle cx="330.035" cy="513.133" r="13.9354" fill="#639D45"/>
<circle cx="264.026" cy="260.828" r="13.9354" fill="#639D45"/>
<circle cx="407.782" cy="199.217" r="13.9354" fill="#639D45"/>
<circle cx="481.128" cy="320.969" r="13.9354" fill="#639D45"/>
<path d="M926.183 320.285C903.388 353.412 882.494 332.184 874.896 317.43C836.145 315.145 840.704 286.016 847.828 271.737C834.151 240.895 860.174 231.281 874.896 230.329C898.83 205.198 919.059 219.858 926.183 230.329C963.793 233.756 959.899 262.218 953.251 276.021C965.787 311.433 940.429 320.285 926.183 320.285Z" fill="#FFE6C8"/>
<mask id="mask1_1195_50" style="mask-type:alpha" maskUnits="userSpaceOnUse" x="843" y="216" width="115" height="122">
<path d="M926.183 320.285C903.388 353.412 882.494 332.184 874.896 317.43C836.145 315.145 840.704 286.016 847.828 271.737C834.151 240.895 860.174 231.281 874.896 230.329C898.83 205.198 919.059 219.858 926.183 230.329C963.793 233.756 959.899 262.218 953.251 276.021C965.787 311.433 940.429 320.285 926.183 320.285Z" fill="white"/>
</mask>
<g mask="url(#mask1_1195_50)">
<path d="M876.245 317.808C873.954 308.188 892.087 280.969 901.44 268.562C903.157 266.251 901.44 265.699 898.004 265.126C894.568 264.554 857.348 273.143 849.904 274.288C842.46 275.433 841.887 270.853 843.605 268.562C845.323 266.272 895.141 263.981 898.004 261.118C900.867 258.255 867.655 227.333 872.809 225.042C877.962 222.752 899.149 259.4 906.021 261.118C912.892 262.836 925.49 226.188 927.781 229.623C930.071 233.059 913.465 252.528 910.602 261.118C907.739 269.707 914.038 264.554 934.652 268.562C955.267 272.571 963.284 270.853 958.13 277.152C952.976 283.45 915.756 266.844 910.602 268.562C905.448 270.28 918.046 298.339 922.627 309.219C927.208 320.099 948.968 320.671 930.071 320.671C911.175 320.671 911.175 275.434 906.021 270.853C900.867 266.272 881.971 312.082 882.543 320.671C883.116 329.261 899.722 336.705 895.141 336.705C890.56 336.705 879.108 329.833 876.245 317.808Z" fill="#C7975D"/>
</g>
<path d="M126.215 148.377C110.487 171.234 96.0696 156.587 90.8269 146.406C64.0892 144.83 67.2349 124.731 72.15 114.879C62.7132 93.5975 80.6693 86.9636 90.8269 86.3068C107.341 68.9667 121.3 79.0818 126.215 86.3068C152.166 88.6714 149.479 108.31 144.892 117.834C153.542 142.268 136.045 148.377 126.215 148.377Z" fill="#FFE6C8"/>
<mask id="mask2_1195_50" style="mask-type:alpha" maskUnits="userSpaceOnUse" x="68" y="76" width="80" height="85">
<path d="M126.215 148.377C110.487 171.234 96.07 156.587 90.8273 146.406C64.0896 144.83 67.2353 124.731 72.1503 114.879C62.7135 93.5975 80.6697 86.9636 90.8273 86.3068C107.342 68.9667 121.3 79.0818 126.215 86.3068C152.166 88.6714 149.48 108.31 144.892 117.834C153.543 142.268 136.045 148.377 126.215 148.377Z" fill="white"/>
</mask>
<g mask="url(#mask2_1195_50)">
<path d="M91.7574 146.667C90.1769 140.029 102.689 121.248 109.142 112.688C110.327 111.093 109.142 110.712 106.771 110.317C104.401 109.922 78.7188 115.848 73.5823 116.639C68.4458 117.429 68.0507 114.268 69.2361 112.688C70.4214 111.107 104.796 109.527 106.771 107.551C108.747 105.575 85.8305 84.2394 89.3866 82.659C92.9426 81.0785 107.562 106.366 112.303 107.551C117.044 108.736 125.737 83.4491 127.317 85.8198C128.898 88.1905 117.44 101.624 115.464 107.551C113.488 113.478 117.835 109.922 132.059 112.688C146.283 115.453 151.814 114.268 148.258 118.614C144.702 122.96 119.02 111.502 115.464 112.688C111.908 113.873 120.6 133.233 123.761 140.741C126.922 148.248 141.937 148.643 128.898 148.643C115.859 148.643 115.859 117.429 112.303 114.268C108.747 111.107 95.7084 142.716 96.1035 148.643C96.4986 154.569 107.957 159.706 104.796 159.706C101.635 159.706 93.7329 154.965 91.7574 146.667Z" fill="#C7975D"/>
</g>
<path d="M204.029 71.3083C194.911 84.559 186.553 76.0679 183.514 70.166C168.014 69.2522 169.837 57.6006 172.687 51.8891C167.216 39.5522 177.625 35.7065 183.514 35.3258C193.088 25.2735 201.179 31.1373 204.029 35.3258C219.073 36.6965 217.515 48.0815 214.856 53.6026C219.871 67.7672 209.727 71.3083 204.029 71.3083Z" fill="#FFE6C8"/>
<mask id="mask3_1195_50" style="mask-type:alpha" maskUnits="userSpaceOnUse" x="170" y="29" width="47" height="50">
<path d="M204.029 71.3083C194.911 84.559 186.553 76.0679 183.514 70.166C168.014 69.2522 169.838 57.6006 172.687 51.8891C167.216 39.5522 177.626 35.7065 183.514 35.3258C193.088 25.2735 201.18 31.1373 204.029 35.3258C219.073 36.6965 217.515 48.0815 214.856 53.6026C219.871 67.7672 209.727 71.3083 204.029 71.3083Z" fill="white"/>
</mask>
<g mask="url(#mask3_1195_50)">
<path d="M184.053 70.3173C183.137 66.4693 190.39 55.5818 194.131 50.619C194.818 49.6943 194.131 49.4737 192.757 49.2446C191.382 49.0156 176.494 52.4513 173.516 52.9094C170.539 53.3675 170.31 51.5352 170.997 50.619C171.684 49.7028 191.611 48.7865 192.757 47.6413C193.902 46.496 180.617 34.1273 182.678 33.2111C184.74 32.2949 193.215 46.9541 195.963 47.6413C198.712 48.3284 203.751 33.6692 204.667 35.0435C205.583 36.4178 198.941 44.2055 197.796 47.6413C196.65 51.077 199.17 49.0156 207.416 50.619C215.662 52.2224 218.868 51.5352 216.807 54.0547C214.745 56.5743 199.857 49.9318 197.796 50.619C195.734 51.3061 200.773 62.5296 202.606 66.8816C204.438 71.2336 213.142 71.4626 205.583 71.4626C198.025 71.4626 198.025 53.3676 195.963 51.5352C193.902 49.7028 186.343 68.0268 186.572 71.4626C186.801 74.8984 193.444 77.876 191.611 77.876C189.779 77.876 185.198 75.1274 184.053 70.3173Z" fill="#C7975D"/>
</g>
</svg>
